<svg width="24" height="24" viewBox="0 0 24 24" fill="none" xmlns="http://www.w3.org/2000/svg">
<path d="M12.0004 0C12.4188 0 12.8007 0.243732 12.9826 0.632765L16.1022 7.2557L23.0689 8.315C23.4782 8.37593 23.8193 8.67122 23.9466 9.079C24.0739 9.48678 23.9693 9.92738 23.6783 10.2274L18.6261 15.3926L19.8175 22.6858C19.8857 23.1076 19.7174 23.5342 19.3764 23.7873C19.0353 24.0404 18.5897 24.0685 18.2259 23.867L11.9958 20.436L5.77491 23.8623C5.40657 24.0638 4.96092 24.0357 4.6244 23.7826C4.28789 23.5295 4.11509 23.1029 4.1833 22.6811L5.37474 15.3879L0.322499 10.2274C0.0269136 9.92738 -0.0731307 9.4821 0.0541984 9.079C0.181527 8.67591 0.522588 8.38062 0.93186 8.315L7.89858 7.2557L11.0181 0.632765C11.2046 0.243732 11.582 0 12.0004 0ZM12.0004 3.70285L9.61298 8.77434C9.45381 9.10713 9.14913 9.34148 8.78988 9.39773L3.41023 10.2133L7.3165 14.2021C7.56661 14.4598 7.68485 14.8254 7.62573 15.1864L6.7026 20.7969L11.4865 18.1627C11.8094 17.9846 12.1959 17.9846 12.5143 18.1627L17.2982 20.7969L16.3796 15.191C16.3205 14.8301 16.4342 14.4645 16.6888 14.2067L20.5951 10.218L15.2155 9.39773C14.8608 9.34148 14.5515 9.11181 14.3924 8.77434L12.0004 3.70285Z" fill="#002C61"/>
</svg>
