<svg width="32" height="32" viewBox="0 0 32 32" fill="none" xmlns="http://www.w3.org/2000/svg">
<path d="M30.2151 15.1429C30.2151 21.2982 24.0758 26.2857 16.5008 26.2857C14.5133 26.2857 12.6276 25.9429 10.924 25.3268C10.2865 25.7929 9.24722 26.4304 8.01507 26.9661C6.72936 27.5232 5.18114 28 3.64364 28C3.29543 28 2.98472 27.7911 2.85079 27.4696C2.71686 27.1482 2.79186 26.7839 3.03293 26.5375L3.049 26.5214C3.06507 26.5054 3.0865 26.4839 3.11864 26.4464C3.17757 26.3821 3.26864 26.2804 3.38114 26.1411C3.60079 25.8732 3.89543 25.4768 4.19543 24.9839C4.73114 24.0946 5.24007 22.9268 5.34186 21.6143C3.73472 19.7929 2.7865 17.5589 2.7865 15.1429C2.7865 8.9875 8.92579 4 16.5008 4C24.0758 4 30.2151 8.9875 30.2151 15.1429Z" fill="#002C61"/>
</svg>
