<svg width="32" height="32" viewBox="0 0 32 32" fill="none" xmlns="http://www.w3.org/2000/svg">
<path d="M17.3057 4.84366C17.0648 4.32809 16.5558 4 15.9967 4C15.4377 4 14.9332 4.32809 14.6878 4.84366L11.7654 11.0445L5.2388 12.0382C4.6934 12.1225 4.2389 12.5162 4.07074 13.0552C3.90258 13.5942 4.03893 14.1895 4.42979 14.5879L9.16565 19.4201L8.04759 26.2491C7.95669 26.8115 8.18394 27.3833 8.63389 27.7161C9.08384 28.0489 9.67923 28.0911 10.1701 27.8239L16.0013 24.6133L21.8325 27.8239C22.3233 28.0911 22.9187 28.0536 23.3687 27.7161C23.8186 27.3786 24.0459 26.8115 23.955 26.2491L22.8324 19.4201L27.5682 14.5879C27.9591 14.1895 28.1 13.5942 27.9273 13.0552C27.7546 12.5162 27.3046 12.1225 26.7592 12.0382L20.2281 11.0445L17.3057 4.84366Z" fill="#002C61"/>
</svg>
