<svg width="32" height="32" viewBox="0 0 32 32" fill="none" xmlns="http://www.w3.org/2000/svg">
<path d="M26.2857 4H5.70893C4.76607 4 4 4.77679 4 5.73036V26.2696C4 27.2232 4.76607 28 5.70893 28H26.2857C27.2286 28 28 27.2232 28 26.2696V5.73036C28 4.77679 27.2286 4 26.2857 4ZM11.2536 24.5714H7.69643V13.1179H11.2589V24.5714H11.2536ZM9.475 11.5536C8.33393 11.5536 7.4125 10.6268 7.4125 9.49107C7.4125 8.35536 8.33393 7.42857 9.475 7.42857C10.6107 7.42857 11.5375 8.35536 11.5375 9.49107C11.5375 10.6321 10.6161 11.5536 9.475 11.5536ZM24.5875 24.5714H21.0304V19C21.0304 17.6714 21.0036 15.9625 19.1821 15.9625C17.3286 15.9625 17.0446 17.4089 17.0446 18.9036V24.5714H13.4875V13.1179H16.9V14.6821H16.9482C17.425 13.7821 18.5875 12.8339 20.3179 12.8339C23.9179 12.8339 24.5875 15.2071 24.5875 18.2929V24.5714Z" fill="#002C61"/>
</svg>
